<mxfile host="Electron" modified="2023-04-14T12:24:23.073Z" agent="Mozilla/5.0 (Windows NT 10.0; Win64; x64) AppleWebKit/537.36 (KHTML, like Gecko) draw.io/21.1.2 Chrome/106.0.5249.199 Electron/21.4.3 Safari/537.36" etag="GxRqPlGbIXuh5xX4d7-d" version="21.1.2" type="device">
  <diagram id="C5RBs43oDa-KdzZeNtuy" name="Page-1">
    <mxGraphModel dx="1419" dy="2121" grid="1" gridSize="10" guides="1" tooltips="1" connect="1" arrows="1" fold="1" page="1" pageScale="1" pageWidth="827" pageHeight="1169" math="0" shadow="0">
      <root>
        <mxCell id="WIyWlLk6GJQsqaUBKTNV-0" />
        <mxCell id="WIyWlLk6GJQsqaUBKTNV-1" parent="WIyWlLk6GJQsqaUBKTNV-0" />
        <mxCell id="tFFh1QmuGE09pDQ4tpGh-15" style="edgeStyle=orthogonalEdgeStyle;rounded=0;orthogonalLoop=1;jettySize=auto;html=1;entryX=0.5;entryY=0;entryDx=0;entryDy=0;" edge="1" parent="WIyWlLk6GJQsqaUBKTNV-1" source="tFFh1QmuGE09pDQ4tpGh-13" target="tFFh1QmuGE09pDQ4tpGh-14">
          <mxGeometry relative="1" as="geometry" />
        </mxCell>
        <mxCell id="tFFh1QmuGE09pDQ4tpGh-96" value="" style="edgeStyle=orthogonalEdgeStyle;rounded=0;orthogonalLoop=1;jettySize=auto;html=1;" edge="1" parent="WIyWlLk6GJQsqaUBKTNV-1" source="tFFh1QmuGE09pDQ4tpGh-13" target="tFFh1QmuGE09pDQ4tpGh-95">
          <mxGeometry relative="1" as="geometry" />
        </mxCell>
        <mxCell id="tFFh1QmuGE09pDQ4tpGh-13" value="BST Graphics View" style="rounded=1;whiteSpace=wrap;html=1;fillColor=#f8cecc;strokeColor=#b85450;" vertex="1" parent="WIyWlLk6GJQsqaUBKTNV-1">
          <mxGeometry x="354" y="30" width="120" height="60" as="geometry" />
        </mxCell>
        <mxCell id="tFFh1QmuGE09pDQ4tpGh-21" style="edgeStyle=orthogonalEdgeStyle;rounded=0;orthogonalLoop=1;jettySize=auto;html=1;" edge="1" parent="WIyWlLk6GJQsqaUBKTNV-1" source="tFFh1QmuGE09pDQ4tpGh-14" target="tFFh1QmuGE09pDQ4tpGh-16">
          <mxGeometry relative="1" as="geometry" />
        </mxCell>
        <mxCell id="tFFh1QmuGE09pDQ4tpGh-22" style="edgeStyle=orthogonalEdgeStyle;rounded=0;orthogonalLoop=1;jettySize=auto;html=1;entryX=0.5;entryY=0;entryDx=0;entryDy=0;" edge="1" parent="WIyWlLk6GJQsqaUBKTNV-1" source="tFFh1QmuGE09pDQ4tpGh-14" target="tFFh1QmuGE09pDQ4tpGh-19">
          <mxGeometry relative="1" as="geometry" />
        </mxCell>
        <mxCell id="tFFh1QmuGE09pDQ4tpGh-23" style="edgeStyle=orthogonalEdgeStyle;rounded=0;orthogonalLoop=1;jettySize=auto;html=1;entryX=0.5;entryY=0;entryDx=0;entryDy=0;" edge="1" parent="WIyWlLk6GJQsqaUBKTNV-1" source="tFFh1QmuGE09pDQ4tpGh-14" target="tFFh1QmuGE09pDQ4tpGh-20">
          <mxGeometry relative="1" as="geometry" />
        </mxCell>
        <mxCell id="tFFh1QmuGE09pDQ4tpGh-14" value="Node value" style="shape=parallelogram;perimeter=parallelogramPerimeter;whiteSpace=wrap;html=1;fixedSize=1;fillColor=#d5e8d4;strokeColor=#82b366;" vertex="1" parent="WIyWlLk6GJQsqaUBKTNV-1">
          <mxGeometry x="354" y="130" width="120" height="60" as="geometry" />
        </mxCell>
        <mxCell id="tFFh1QmuGE09pDQ4tpGh-26" style="edgeStyle=orthogonalEdgeStyle;rounded=0;orthogonalLoop=1;jettySize=auto;html=1;entryX=0.5;entryY=0;entryDx=0;entryDy=0;" edge="1" parent="WIyWlLk6GJQsqaUBKTNV-1" source="tFFh1QmuGE09pDQ4tpGh-16" target="tFFh1QmuGE09pDQ4tpGh-25">
          <mxGeometry relative="1" as="geometry">
            <Array as="points">
              <mxPoint x="260" y="320" />
              <mxPoint x="414" y="320" />
            </Array>
          </mxGeometry>
        </mxCell>
        <mxCell id="tFFh1QmuGE09pDQ4tpGh-16" value="Add" style="rounded=1;whiteSpace=wrap;html=1;fillColor=#dae8fc;strokeColor=#6c8ebf;" vertex="1" parent="WIyWlLk6GJQsqaUBKTNV-1">
          <mxGeometry x="200" y="230" width="120" height="60" as="geometry" />
        </mxCell>
        <mxCell id="tFFh1QmuGE09pDQ4tpGh-29" style="edgeStyle=orthogonalEdgeStyle;rounded=0;orthogonalLoop=1;jettySize=auto;html=1;entryX=0.5;entryY=0;entryDx=0;entryDy=0;" edge="1" parent="WIyWlLk6GJQsqaUBKTNV-1" source="tFFh1QmuGE09pDQ4tpGh-19" target="tFFh1QmuGE09pDQ4tpGh-25">
          <mxGeometry relative="1" as="geometry">
            <mxPoint x="370" y="350" as="targetPoint" />
          </mxGeometry>
        </mxCell>
        <mxCell id="tFFh1QmuGE09pDQ4tpGh-19" value="Delete" style="rounded=1;whiteSpace=wrap;html=1;fillColor=#dae8fc;strokeColor=#6c8ebf;" vertex="1" parent="WIyWlLk6GJQsqaUBKTNV-1">
          <mxGeometry x="354" y="230" width="120" height="60" as="geometry" />
        </mxCell>
        <mxCell id="tFFh1QmuGE09pDQ4tpGh-30" style="edgeStyle=orthogonalEdgeStyle;rounded=0;orthogonalLoop=1;jettySize=auto;html=1;entryX=0.5;entryY=0;entryDx=0;entryDy=0;" edge="1" parent="WIyWlLk6GJQsqaUBKTNV-1" source="tFFh1QmuGE09pDQ4tpGh-20" target="tFFh1QmuGE09pDQ4tpGh-25">
          <mxGeometry relative="1" as="geometry">
            <Array as="points">
              <mxPoint x="570" y="320" />
              <mxPoint x="414" y="320" />
            </Array>
          </mxGeometry>
        </mxCell>
        <mxCell id="tFFh1QmuGE09pDQ4tpGh-20" value="Search" style="rounded=1;whiteSpace=wrap;html=1;fillColor=#dae8fc;strokeColor=#6c8ebf;" vertex="1" parent="WIyWlLk6GJQsqaUBKTNV-1">
          <mxGeometry x="510" y="230" width="120" height="60" as="geometry" />
        </mxCell>
        <mxCell id="tFFh1QmuGE09pDQ4tpGh-32" value="Y" style="edgeStyle=orthogonalEdgeStyle;rounded=0;orthogonalLoop=1;jettySize=auto;html=1;entryX=0.5;entryY=0;entryDx=0;entryDy=0;" edge="1" parent="WIyWlLk6GJQsqaUBKTNV-1" source="tFFh1QmuGE09pDQ4tpGh-25" target="tFFh1QmuGE09pDQ4tpGh-36">
          <mxGeometry x="-0.3772" relative="1" as="geometry">
            <mxPoint x="80" y="420" as="targetPoint" />
            <Array as="points">
              <mxPoint x="140" y="540" />
              <mxPoint x="140" y="640" />
            </Array>
            <mxPoint as="offset" />
          </mxGeometry>
        </mxCell>
        <mxCell id="tFFh1QmuGE09pDQ4tpGh-54" style="edgeStyle=orthogonalEdgeStyle;rounded=0;orthogonalLoop=1;jettySize=auto;html=1;entryX=0.5;entryY=1;entryDx=0;entryDy=0;" edge="1" parent="WIyWlLk6GJQsqaUBKTNV-1" source="tFFh1QmuGE09pDQ4tpGh-25" target="tFFh1QmuGE09pDQ4tpGh-53">
          <mxGeometry relative="1" as="geometry" />
        </mxCell>
        <mxCell id="tFFh1QmuGE09pDQ4tpGh-56" value="N" style="edgeLabel;html=1;align=center;verticalAlign=middle;resizable=0;points=[];" vertex="1" connectable="0" parent="tFFh1QmuGE09pDQ4tpGh-54">
          <mxGeometry x="-0.2162" y="1" relative="1" as="geometry">
            <mxPoint as="offset" />
          </mxGeometry>
        </mxCell>
        <mxCell id="tFFh1QmuGE09pDQ4tpGh-25" value="Not in View" style="rhombus;whiteSpace=wrap;html=1;" vertex="1" parent="WIyWlLk6GJQsqaUBKTNV-1">
          <mxGeometry x="374" y="500" width="80" height="80" as="geometry" />
        </mxCell>
        <mxCell id="tFFh1QmuGE09pDQ4tpGh-52" style="edgeStyle=orthogonalEdgeStyle;rounded=0;orthogonalLoop=1;jettySize=auto;html=1;entryX=0;entryY=0.5;entryDx=0;entryDy=0;" edge="1" parent="WIyWlLk6GJQsqaUBKTNV-1" source="tFFh1QmuGE09pDQ4tpGh-50" target="tFFh1QmuGE09pDQ4tpGh-13">
          <mxGeometry relative="1" as="geometry">
            <Array as="points">
              <mxPoint x="140" y="60" />
            </Array>
          </mxGeometry>
        </mxCell>
        <mxCell id="tFFh1QmuGE09pDQ4tpGh-50" value="Delete and search" style="rounded=1;whiteSpace=wrap;html=1;fillColor=#dae8fc;strokeColor=#6c8ebf;" vertex="1" parent="WIyWlLk6GJQsqaUBKTNV-1">
          <mxGeometry x="80" y="390" width="120" height="60" as="geometry" />
        </mxCell>
        <mxCell id="tFFh1QmuGE09pDQ4tpGh-55" style="edgeStyle=orthogonalEdgeStyle;rounded=0;orthogonalLoop=1;jettySize=auto;html=1;entryX=1;entryY=0.5;entryDx=0;entryDy=0;" edge="1" parent="WIyWlLk6GJQsqaUBKTNV-1" source="tFFh1QmuGE09pDQ4tpGh-53" target="tFFh1QmuGE09pDQ4tpGh-13">
          <mxGeometry relative="1" as="geometry">
            <Array as="points">
              <mxPoint x="690" y="60" />
            </Array>
          </mxGeometry>
        </mxCell>
        <mxCell id="tFFh1QmuGE09pDQ4tpGh-53" value="Add" style="rounded=1;whiteSpace=wrap;html=1;fillColor=#dae8fc;strokeColor=#6c8ebf;" vertex="1" parent="WIyWlLk6GJQsqaUBKTNV-1">
          <mxGeometry x="630" y="390" width="120" height="60" as="geometry" />
        </mxCell>
        <mxCell id="tFFh1QmuGE09pDQ4tpGh-61" value="" style="endArrow=classic;html=1;rounded=0;entryX=0.5;entryY=1;entryDx=0;entryDy=0;" edge="1" parent="WIyWlLk6GJQsqaUBKTNV-1" target="tFFh1QmuGE09pDQ4tpGh-50">
          <mxGeometry width="50" height="50" relative="1" as="geometry">
            <mxPoint x="140" y="540" as="sourcePoint" />
            <mxPoint x="150" y="490" as="targetPoint" />
          </mxGeometry>
        </mxCell>
        <mxCell id="tFFh1QmuGE09pDQ4tpGh-84" value="" style="group" vertex="1" connectable="0" parent="WIyWlLk6GJQsqaUBKTNV-1">
          <mxGeometry x="353" y="640" width="277" height="580" as="geometry" />
        </mxCell>
        <mxCell id="tFFh1QmuGE09pDQ4tpGh-62" value="Delete" style="rounded=1;whiteSpace=wrap;html=1;fillColor=#dae8fc;strokeColor=#6c8ebf;" vertex="1" parent="tFFh1QmuGE09pDQ4tpGh-84">
          <mxGeometry x="157" width="120" height="60" as="geometry" />
        </mxCell>
        <mxCell id="tFFh1QmuGE09pDQ4tpGh-63" value="Search node" style="rounded=1;whiteSpace=wrap;html=1;" vertex="1" parent="tFFh1QmuGE09pDQ4tpGh-84">
          <mxGeometry x="157" y="98" width="120" height="60" as="geometry" />
        </mxCell>
        <mxCell id="tFFh1QmuGE09pDQ4tpGh-68" value="" style="edgeStyle=orthogonalEdgeStyle;rounded=0;orthogonalLoop=1;jettySize=auto;html=1;" edge="1" parent="tFFh1QmuGE09pDQ4tpGh-84" source="tFFh1QmuGE09pDQ4tpGh-62" target="tFFh1QmuGE09pDQ4tpGh-63">
          <mxGeometry relative="1" as="geometry" />
        </mxCell>
        <mxCell id="tFFh1QmuGE09pDQ4tpGh-67" value="Is&amp;nbsp; root" style="rhombus;whiteSpace=wrap;html=1;" vertex="1" parent="tFFh1QmuGE09pDQ4tpGh-84">
          <mxGeometry x="177" y="198" width="80" height="80" as="geometry" />
        </mxCell>
        <mxCell id="tFFh1QmuGE09pDQ4tpGh-69" value="" style="edgeStyle=orthogonalEdgeStyle;rounded=0;orthogonalLoop=1;jettySize=auto;html=1;" edge="1" parent="tFFh1QmuGE09pDQ4tpGh-84" source="tFFh1QmuGE09pDQ4tpGh-63" target="tFFh1QmuGE09pDQ4tpGh-67">
          <mxGeometry relative="1" as="geometry" />
        </mxCell>
        <mxCell id="tFFh1QmuGE09pDQ4tpGh-70" value="Change root" style="rounded=1;whiteSpace=wrap;html=1;" vertex="1" parent="tFFh1QmuGE09pDQ4tpGh-84">
          <mxGeometry y="208" width="120" height="60" as="geometry" />
        </mxCell>
        <mxCell id="tFFh1QmuGE09pDQ4tpGh-71" value="Y" style="edgeStyle=orthogonalEdgeStyle;rounded=0;orthogonalLoop=1;jettySize=auto;html=1;entryX=1;entryY=0.5;entryDx=0;entryDy=0;" edge="1" parent="tFFh1QmuGE09pDQ4tpGh-84" source="tFFh1QmuGE09pDQ4tpGh-67" target="tFFh1QmuGE09pDQ4tpGh-70">
          <mxGeometry relative="1" as="geometry" />
        </mxCell>
        <mxCell id="tFFh1QmuGE09pDQ4tpGh-77" value="Delete node" style="rounded=1;whiteSpace=wrap;html=1;" vertex="1" parent="tFFh1QmuGE09pDQ4tpGh-84">
          <mxGeometry x="157" y="320" width="120" height="60" as="geometry" />
        </mxCell>
        <mxCell id="tFFh1QmuGE09pDQ4tpGh-78" value="N" style="edgeStyle=orthogonalEdgeStyle;rounded=0;orthogonalLoop=1;jettySize=auto;html=1;" edge="1" parent="tFFh1QmuGE09pDQ4tpGh-84" source="tFFh1QmuGE09pDQ4tpGh-67" target="tFFh1QmuGE09pDQ4tpGh-77">
          <mxGeometry relative="1" as="geometry" />
        </mxCell>
        <mxCell id="tFFh1QmuGE09pDQ4tpGh-79" style="edgeStyle=orthogonalEdgeStyle;rounded=0;orthogonalLoop=1;jettySize=auto;html=1;entryX=0;entryY=0.5;entryDx=0;entryDy=0;" edge="1" parent="tFFh1QmuGE09pDQ4tpGh-84" source="tFFh1QmuGE09pDQ4tpGh-70" target="tFFh1QmuGE09pDQ4tpGh-77">
          <mxGeometry relative="1" as="geometry">
            <Array as="points">
              <mxPoint x="60" y="350" />
            </Array>
          </mxGeometry>
        </mxCell>
        <mxCell id="tFFh1QmuGE09pDQ4tpGh-80" value="Move node" style="rounded=1;whiteSpace=wrap;html=1;" vertex="1" parent="tFFh1QmuGE09pDQ4tpGh-84">
          <mxGeometry x="157" y="420" width="120" height="60" as="geometry" />
        </mxCell>
        <mxCell id="tFFh1QmuGE09pDQ4tpGh-81" value="" style="edgeStyle=orthogonalEdgeStyle;rounded=0;orthogonalLoop=1;jettySize=auto;html=1;" edge="1" parent="tFFh1QmuGE09pDQ4tpGh-84" source="tFFh1QmuGE09pDQ4tpGh-77" target="tFFh1QmuGE09pDQ4tpGh-80">
          <mxGeometry relative="1" as="geometry" />
        </mxCell>
        <mxCell id="tFFh1QmuGE09pDQ4tpGh-82" value="Redraw" style="rounded=1;whiteSpace=wrap;html=1;" vertex="1" parent="tFFh1QmuGE09pDQ4tpGh-84">
          <mxGeometry x="157" y="520" width="120" height="60" as="geometry" />
        </mxCell>
        <mxCell id="tFFh1QmuGE09pDQ4tpGh-83" value="" style="edgeStyle=orthogonalEdgeStyle;rounded=0;orthogonalLoop=1;jettySize=auto;html=1;" edge="1" parent="tFFh1QmuGE09pDQ4tpGh-84" source="tFFh1QmuGE09pDQ4tpGh-80" target="tFFh1QmuGE09pDQ4tpGh-82">
          <mxGeometry relative="1" as="geometry" />
        </mxCell>
        <mxCell id="tFFh1QmuGE09pDQ4tpGh-85" value="" style="group;" vertex="1" connectable="0" parent="WIyWlLk6GJQsqaUBKTNV-1">
          <mxGeometry x="80" y="640" width="120" height="660" as="geometry" />
        </mxCell>
        <mxCell id="tFFh1QmuGE09pDQ4tpGh-74" value="Redraw" style="rounded=1;whiteSpace=wrap;html=1;" vertex="1" parent="tFFh1QmuGE09pDQ4tpGh-85">
          <mxGeometry y="600" width="120" height="60" as="geometry" />
        </mxCell>
        <mxCell id="tFFh1QmuGE09pDQ4tpGh-75" value="" style="edgeStyle=orthogonalEdgeStyle;rounded=0;orthogonalLoop=1;jettySize=auto;html=1;" edge="1" parent="tFFh1QmuGE09pDQ4tpGh-85" source="tFFh1QmuGE09pDQ4tpGh-40" target="tFFh1QmuGE09pDQ4tpGh-74">
          <mxGeometry relative="1" as="geometry" />
        </mxCell>
        <mxCell id="tFFh1QmuGE09pDQ4tpGh-31" value="Create node" style="rounded=1;whiteSpace=wrap;html=1;" vertex="1" parent="tFFh1QmuGE09pDQ4tpGh-85">
          <mxGeometry y="98" width="120" height="60" as="geometry" />
        </mxCell>
        <mxCell id="tFFh1QmuGE09pDQ4tpGh-34" value="Calculated position" style="rounded=1;whiteSpace=wrap;html=1;" vertex="1" parent="tFFh1QmuGE09pDQ4tpGh-85">
          <mxGeometry y="298" width="120" height="60" as="geometry" />
        </mxCell>
        <mxCell id="tFFh1QmuGE09pDQ4tpGh-37" style="edgeStyle=orthogonalEdgeStyle;rounded=0;orthogonalLoop=1;jettySize=auto;html=1;entryX=0.5;entryY=0;entryDx=0;entryDy=0;" edge="1" parent="tFFh1QmuGE09pDQ4tpGh-85" source="tFFh1QmuGE09pDQ4tpGh-36" target="tFFh1QmuGE09pDQ4tpGh-31">
          <mxGeometry relative="1" as="geometry" />
        </mxCell>
        <mxCell id="tFFh1QmuGE09pDQ4tpGh-36" value="Add" style="rounded=1;whiteSpace=wrap;html=1;fillColor=#dae8fc;strokeColor=#6c8ebf;" vertex="1" parent="tFFh1QmuGE09pDQ4tpGh-85">
          <mxGeometry width="120" height="60" as="geometry" />
        </mxCell>
        <mxCell id="tFFh1QmuGE09pDQ4tpGh-47" style="edgeStyle=orthogonalEdgeStyle;rounded=0;orthogonalLoop=1;jettySize=auto;html=1;" edge="1" parent="tFFh1QmuGE09pDQ4tpGh-85" source="tFFh1QmuGE09pDQ4tpGh-38" target="tFFh1QmuGE09pDQ4tpGh-34">
          <mxGeometry relative="1" as="geometry" />
        </mxCell>
        <mxCell id="tFFh1QmuGE09pDQ4tpGh-38" value="Set node" style="rounded=1;whiteSpace=wrap;html=1;" vertex="1" parent="tFFh1QmuGE09pDQ4tpGh-85">
          <mxGeometry y="198" width="120" height="60" as="geometry" />
        </mxCell>
        <mxCell id="tFFh1QmuGE09pDQ4tpGh-46" style="edgeStyle=orthogonalEdgeStyle;rounded=0;orthogonalLoop=1;jettySize=auto;html=1;entryX=0.5;entryY=0;entryDx=0;entryDy=0;" edge="1" parent="tFFh1QmuGE09pDQ4tpGh-85" source="tFFh1QmuGE09pDQ4tpGh-31" target="tFFh1QmuGE09pDQ4tpGh-38">
          <mxGeometry relative="1" as="geometry" />
        </mxCell>
        <mxCell id="tFFh1QmuGE09pDQ4tpGh-40" value="Connect node" style="rounded=1;whiteSpace=wrap;html=1;" vertex="1" parent="tFFh1QmuGE09pDQ4tpGh-85">
          <mxGeometry y="498" width="120" height="60" as="geometry" />
        </mxCell>
        <mxCell id="tFFh1QmuGE09pDQ4tpGh-45" style="edgeStyle=orthogonalEdgeStyle;rounded=0;orthogonalLoop=1;jettySize=auto;html=1;entryX=0.5;entryY=0;entryDx=0;entryDy=0;" edge="1" parent="tFFh1QmuGE09pDQ4tpGh-85" source="tFFh1QmuGE09pDQ4tpGh-43" target="tFFh1QmuGE09pDQ4tpGh-40">
          <mxGeometry relative="1" as="geometry" />
        </mxCell>
        <mxCell id="tFFh1QmuGE09pDQ4tpGh-43" value="Add to scene" style="rounded=1;whiteSpace=wrap;html=1;" vertex="1" parent="tFFh1QmuGE09pDQ4tpGh-85">
          <mxGeometry y="398" width="120" height="60" as="geometry" />
        </mxCell>
        <mxCell id="tFFh1QmuGE09pDQ4tpGh-48" style="edgeStyle=orthogonalEdgeStyle;rounded=0;orthogonalLoop=1;jettySize=auto;html=1;entryX=0.5;entryY=0;entryDx=0;entryDy=0;" edge="1" parent="tFFh1QmuGE09pDQ4tpGh-85" source="tFFh1QmuGE09pDQ4tpGh-34" target="tFFh1QmuGE09pDQ4tpGh-43">
          <mxGeometry relative="1" as="geometry" />
        </mxCell>
        <mxCell id="tFFh1QmuGE09pDQ4tpGh-92" value="" style="group" vertex="1" connectable="0" parent="WIyWlLk6GJQsqaUBKTNV-1">
          <mxGeometry x="740" y="640" width="120" height="158" as="geometry" />
        </mxCell>
        <mxCell id="tFFh1QmuGE09pDQ4tpGh-86" value="Search" style="rounded=1;whiteSpace=wrap;html=1;fillColor=#dae8fc;strokeColor=#6c8ebf;" vertex="1" parent="tFFh1QmuGE09pDQ4tpGh-92">
          <mxGeometry width="120" height="60" as="geometry" />
        </mxCell>
        <mxCell id="tFFh1QmuGE09pDQ4tpGh-87" value="DFS" style="rounded=1;whiteSpace=wrap;html=1;" vertex="1" parent="tFFh1QmuGE09pDQ4tpGh-92">
          <mxGeometry y="98" width="120" height="60" as="geometry" />
        </mxCell>
        <mxCell id="tFFh1QmuGE09pDQ4tpGh-89" value="" style="edgeStyle=orthogonalEdgeStyle;rounded=0;orthogonalLoop=1;jettySize=auto;html=1;" edge="1" parent="tFFh1QmuGE09pDQ4tpGh-92" source="tFFh1QmuGE09pDQ4tpGh-86" target="tFFh1QmuGE09pDQ4tpGh-87">
          <mxGeometry relative="1" as="geometry" />
        </mxCell>
        <mxCell id="tFFh1QmuGE09pDQ4tpGh-93" value="" style="endArrow=classic;html=1;rounded=0;entryX=0.5;entryY=0;entryDx=0;entryDy=0;" edge="1" parent="WIyWlLk6GJQsqaUBKTNV-1" target="tFFh1QmuGE09pDQ4tpGh-62">
          <mxGeometry width="50" height="50" relative="1" as="geometry">
            <mxPoint x="690" y="540" as="sourcePoint" />
            <mxPoint x="670" y="570" as="targetPoint" />
            <Array as="points">
              <mxPoint x="690" y="580" />
              <mxPoint x="570" y="580" />
            </Array>
          </mxGeometry>
        </mxCell>
        <mxCell id="tFFh1QmuGE09pDQ4tpGh-94" value="" style="endArrow=classic;html=1;rounded=0;entryX=0.5;entryY=0;entryDx=0;entryDy=0;" edge="1" parent="WIyWlLk6GJQsqaUBKTNV-1" target="tFFh1QmuGE09pDQ4tpGh-86">
          <mxGeometry width="50" height="50" relative="1" as="geometry">
            <mxPoint x="690" y="580" as="sourcePoint" />
            <mxPoint x="730" y="590" as="targetPoint" />
            <Array as="points">
              <mxPoint x="800" y="580" />
            </Array>
          </mxGeometry>
        </mxCell>
        <mxCell id="tFFh1QmuGE09pDQ4tpGh-101" style="edgeStyle=orthogonalEdgeStyle;rounded=0;orthogonalLoop=1;jettySize=auto;html=1;entryX=0.5;entryY=1;entryDx=0;entryDy=0;" edge="1" parent="WIyWlLk6GJQsqaUBKTNV-1" source="tFFh1QmuGE09pDQ4tpGh-95" target="tFFh1QmuGE09pDQ4tpGh-97">
          <mxGeometry relative="1" as="geometry">
            <Array as="points">
              <mxPoint x="414" y="-110" />
              <mxPoint x="190" y="-110" />
            </Array>
          </mxGeometry>
        </mxCell>
        <mxCell id="tFFh1QmuGE09pDQ4tpGh-102" style="edgeStyle=orthogonalEdgeStyle;rounded=0;orthogonalLoop=1;jettySize=auto;html=1;entryX=0.5;entryY=1;entryDx=0;entryDy=0;" edge="1" parent="WIyWlLk6GJQsqaUBKTNV-1" source="tFFh1QmuGE09pDQ4tpGh-95" target="tFFh1QmuGE09pDQ4tpGh-98">
          <mxGeometry relative="1" as="geometry">
            <Array as="points">
              <mxPoint x="414" y="-110" />
              <mxPoint x="340" y="-110" />
            </Array>
          </mxGeometry>
        </mxCell>
        <mxCell id="tFFh1QmuGE09pDQ4tpGh-103" style="edgeStyle=orthogonalEdgeStyle;rounded=0;orthogonalLoop=1;jettySize=auto;html=1;entryX=0.5;entryY=1;entryDx=0;entryDy=0;" edge="1" parent="WIyWlLk6GJQsqaUBKTNV-1" source="tFFh1QmuGE09pDQ4tpGh-95" target="tFFh1QmuGE09pDQ4tpGh-99">
          <mxGeometry relative="1" as="geometry">
            <Array as="points">
              <mxPoint x="414" y="-110" />
              <mxPoint x="490" y="-110" />
            </Array>
          </mxGeometry>
        </mxCell>
        <mxCell id="tFFh1QmuGE09pDQ4tpGh-104" style="edgeStyle=orthogonalEdgeStyle;rounded=0;orthogonalLoop=1;jettySize=auto;html=1;entryX=0.5;entryY=1;entryDx=0;entryDy=0;" edge="1" parent="WIyWlLk6GJQsqaUBKTNV-1" source="tFFh1QmuGE09pDQ4tpGh-95" target="tFFh1QmuGE09pDQ4tpGh-100">
          <mxGeometry relative="1" as="geometry">
            <Array as="points">
              <mxPoint x="414" y="-110" />
              <mxPoint x="634" y="-110" />
            </Array>
          </mxGeometry>
        </mxCell>
        <mxCell id="tFFh1QmuGE09pDQ4tpGh-95" value="Traversal" style="rounded=1;whiteSpace=wrap;html=1;fillColor=#dae8fc;strokeColor=#6c8ebf;" vertex="1" parent="WIyWlLk6GJQsqaUBKTNV-1">
          <mxGeometry x="354" y="-70" width="120" height="60" as="geometry" />
        </mxCell>
        <mxCell id="tFFh1QmuGE09pDQ4tpGh-97" value="Preorder" style="rounded=1;whiteSpace=wrap;html=1;fillColor=#dae8fc;strokeColor=#6c8ebf;" vertex="1" parent="WIyWlLk6GJQsqaUBKTNV-1">
          <mxGeometry x="130" y="-220" width="120" height="60" as="geometry" />
        </mxCell>
        <mxCell id="tFFh1QmuGE09pDQ4tpGh-98" value="Inorder" style="rounded=1;whiteSpace=wrap;html=1;fillColor=#dae8fc;strokeColor=#6c8ebf;" vertex="1" parent="WIyWlLk6GJQsqaUBKTNV-1">
          <mxGeometry x="280" y="-220" width="120" height="60" as="geometry" />
        </mxCell>
        <mxCell id="tFFh1QmuGE09pDQ4tpGh-99" value="Postorder" style="rounded=1;whiteSpace=wrap;html=1;fillColor=#dae8fc;strokeColor=#6c8ebf;" vertex="1" parent="WIyWlLk6GJQsqaUBKTNV-1">
          <mxGeometry x="430" y="-220" width="120" height="60" as="geometry" />
        </mxCell>
        <mxCell id="tFFh1QmuGE09pDQ4tpGh-100" value="Level order" style="rounded=1;whiteSpace=wrap;html=1;fillColor=#dae8fc;strokeColor=#6c8ebf;" vertex="1" parent="WIyWlLk6GJQsqaUBKTNV-1">
          <mxGeometry x="574" y="-220" width="120" height="60" as="geometry" />
        </mxCell>
      </root>
    </mxGraphModel>
  </diagram>
</mxfile>
